<mxfile host="app.diagrams.net" agent="Mozilla/5.0 (Windows NT 10.0; Win64; x64) AppleWebKit/537.36 (KHTML, like Gecko) Chrome/130.0.0.0 YaBrowser/24.12.0.0 Safari/537.36" version="26.0.5">
  <diagram name="Страница — 1" id="beJrIaqvk04KeecmctFD">
    <mxGraphModel dx="1414" dy="769" grid="1" gridSize="10" guides="1" tooltips="1" connect="1" arrows="1" fold="1" page="1" pageScale="1" pageWidth="827" pageHeight="1169" math="0" shadow="0">
      <root>
        <mxCell id="0" />
        <mxCell id="1" parent="0" />
        <mxCell id="I69QcnJhP8CfRzv54VIs-12" value="" style="edgeStyle=orthogonalEdgeStyle;rounded=0;orthogonalLoop=1;jettySize=auto;html=1;fontFamily=Times New Roman;fontSize=12;" edge="1" parent="1" source="I69QcnJhP8CfRzv54VIs-1" target="I69QcnJhP8CfRzv54VIs-2">
          <mxGeometry relative="1" as="geometry" />
        </mxCell>
        <mxCell id="I69QcnJhP8CfRzv54VIs-1" value="Начало&amp;nbsp;" style="ellipse;whiteSpace=wrap;html=1;" vertex="1" parent="1">
          <mxGeometry x="280" y="40" width="280" height="40" as="geometry" />
        </mxCell>
        <mxCell id="I69QcnJhP8CfRzv54VIs-13" value="" style="edgeStyle=orthogonalEdgeStyle;rounded=0;orthogonalLoop=1;jettySize=auto;html=1;fontFamily=Times New Roman;fontSize=12;" edge="1" parent="1" source="I69QcnJhP8CfRzv54VIs-2" target="I69QcnJhP8CfRzv54VIs-3">
          <mxGeometry relative="1" as="geometry" />
        </mxCell>
        <mxCell id="I69QcnJhP8CfRzv54VIs-2" value="&lt;div&gt;&lt;br&gt;&lt;/div&gt;&lt;div&gt;&amp;nbsp; &amp;nbsp; &amp;nbsp; &amp;nbsp; &amp;nbsp; &amp;nbsp; Console.WriteLine(&quot;Введите первое значение:&quot;);&lt;/div&gt;&lt;div&gt;&amp;nbsp; &amp;nbsp; &amp;nbsp; &amp;nbsp; &amp;nbsp; &amp;nbsp; int min = int.Parse(Console.ReadLine());&lt;/div&gt;" style="shape=document;whiteSpace=wrap;html=1;boundedLbl=1;fontFamily=Times New Roman;fontSize=12;" vertex="1" parent="1">
          <mxGeometry x="280" y="120" width="280" height="80" as="geometry" />
        </mxCell>
        <mxCell id="I69QcnJhP8CfRzv54VIs-3" value="&lt;div&gt;Console.WriteLine(&quot;Введите второе значение:&quot;);&lt;/div&gt;&lt;div&gt;int value = int.Parse(Console.ReadLine());&lt;/div&gt;&lt;div&gt;Math.Min(min, value);&lt;/div&gt;&lt;div&gt;min = value;&lt;/div&gt;&lt;div&gt;Console.WriteLine(&quot;Введите третье значение:&quot;);&lt;/div&gt;&lt;div&gt;value = int.Parse(Console.ReadLine());&lt;/div&gt;&lt;div&gt;Math.Min(min, value);&lt;/div&gt;&lt;div&gt;min = value;&amp;nbsp;&lt;/div&gt;&lt;div&gt;....&lt;/div&gt;&lt;div&gt;&lt;br&gt;&lt;/div&gt;" style="shape=document;whiteSpace=wrap;html=1;boundedLbl=1;fontFamily=Times New Roman;fontSize=12;" vertex="1" parent="1">
          <mxGeometry x="280" y="240" width="280" height="200" as="geometry" />
        </mxCell>
        <mxCell id="I69QcnJhP8CfRzv54VIs-15" value="" style="edgeStyle=orthogonalEdgeStyle;rounded=0;orthogonalLoop=1;jettySize=auto;html=1;fontFamily=Times New Roman;fontSize=12;" edge="1" parent="1" source="I69QcnJhP8CfRzv54VIs-5" target="I69QcnJhP8CfRzv54VIs-6">
          <mxGeometry relative="1" as="geometry" />
        </mxCell>
        <mxCell id="I69QcnJhP8CfRzv54VIs-5" value="double x = 0, y = 0;" style="rounded=0;whiteSpace=wrap;html=1;fontFamily=Times New Roman;fontSize=12;" vertex="1" parent="1">
          <mxGeometry x="280" y="480" width="280" height="60" as="geometry" />
        </mxCell>
        <mxCell id="I69QcnJhP8CfRzv54VIs-6" value="Console.WriteLine(&quot;Введите значение x: &quot;);" style="shape=document;whiteSpace=wrap;html=1;boundedLbl=1;fontFamily=Times New Roman;fontSize=12;" vertex="1" parent="1">
          <mxGeometry x="280" y="585" width="280" height="55" as="geometry" />
        </mxCell>
        <mxCell id="I69QcnJhP8CfRzv54VIs-17" value="" style="edgeStyle=orthogonalEdgeStyle;rounded=0;orthogonalLoop=1;jettySize=auto;html=1;fontFamily=Times New Roman;fontSize=12;" edge="1" parent="1" source="I69QcnJhP8CfRzv54VIs-7" target="I69QcnJhP8CfRzv54VIs-8">
          <mxGeometry relative="1" as="geometry" />
        </mxCell>
        <mxCell id="I69QcnJhP8CfRzv54VIs-7" value="&amp;nbsp;double.TryParse(Console.ReadLine(), out x) ;" style="rhombus;whiteSpace=wrap;html=1;fontFamily=Times New Roman;fontSize=12;" vertex="1" parent="1">
          <mxGeometry x="280" y="680" width="280" height="80" as="geometry" />
        </mxCell>
        <mxCell id="I69QcnJhP8CfRzv54VIs-18" value="" style="edgeStyle=orthogonalEdgeStyle;rounded=0;orthogonalLoop=1;jettySize=auto;html=1;fontFamily=Times New Roman;fontSize=12;" edge="1" parent="1" source="I69QcnJhP8CfRzv54VIs-8" target="I69QcnJhP8CfRzv54VIs-9">
          <mxGeometry relative="1" as="geometry" />
        </mxCell>
        <mxCell id="I69QcnJhP8CfRzv54VIs-8" value="Console.WriteLine(&quot;Введите значение y: &quot;);" style="shape=document;whiteSpace=wrap;html=1;boundedLbl=1;fontFamily=Times New Roman;fontSize=12;" vertex="1" parent="1">
          <mxGeometry x="280" y="800" width="280" height="50" as="geometry" />
        </mxCell>
        <mxCell id="I69QcnJhP8CfRzv54VIs-29" value="" style="edgeStyle=orthogonalEdgeStyle;rounded=0;orthogonalLoop=1;jettySize=auto;html=1;fontFamily=Times New Roman;fontSize=12;" edge="1" parent="1" source="I69QcnJhP8CfRzv54VIs-9" target="I69QcnJhP8CfRzv54VIs-28">
          <mxGeometry relative="1" as="geometry" />
        </mxCell>
        <mxCell id="I69QcnJhP8CfRzv54VIs-9" value="double.TryParse(Console.ReadLine(), out y) ;" style="rhombus;whiteSpace=wrap;html=1;fontFamily=Times New Roman;fontSize=12;" vertex="1" parent="1">
          <mxGeometry x="280" y="890" width="280" height="80" as="geometry" />
        </mxCell>
        <mxCell id="I69QcnJhP8CfRzv54VIs-19" value="" style="endArrow=classic;html=1;rounded=0;fontFamily=Times New Roman;fontSize=12;" edge="1" parent="1" target="I69QcnJhP8CfRzv54VIs-5">
          <mxGeometry width="50" height="50" relative="1" as="geometry">
            <mxPoint x="420" y="410" as="sourcePoint" />
            <mxPoint x="470" y="360" as="targetPoint" />
          </mxGeometry>
        </mxCell>
        <mxCell id="I69QcnJhP8CfRzv54VIs-20" value="" style="endArrow=classic;html=1;rounded=0;entryX=0.5;entryY=0;entryDx=0;entryDy=0;fontFamily=Times New Roman;fontSize=12;" edge="1" parent="1" target="I69QcnJhP8CfRzv54VIs-7">
          <mxGeometry width="50" height="50" relative="1" as="geometry">
            <mxPoint x="420" y="630" as="sourcePoint" />
            <mxPoint x="470" y="580" as="targetPoint" />
          </mxGeometry>
        </mxCell>
        <mxCell id="I69QcnJhP8CfRzv54VIs-21" value="" style="endArrow=none;html=1;rounded=0;fontFamily=Times New Roman;fontSize=12;" edge="1" parent="1">
          <mxGeometry width="50" height="50" relative="1" as="geometry">
            <mxPoint x="560" y="720" as="sourcePoint" />
            <mxPoint x="680" y="720" as="targetPoint" />
          </mxGeometry>
        </mxCell>
        <mxCell id="I69QcnJhP8CfRzv54VIs-23" value="" style="endArrow=none;html=1;rounded=0;fontFamily=Times New Roman;fontSize=12;" edge="1" parent="1">
          <mxGeometry width="50" height="50" relative="1" as="geometry">
            <mxPoint x="680" y="720" as="sourcePoint" />
            <mxPoint x="680" y="560" as="targetPoint" />
          </mxGeometry>
        </mxCell>
        <mxCell id="I69QcnJhP8CfRzv54VIs-24" value="" style="endArrow=classic;html=1;rounded=0;fontFamily=Times New Roman;fontSize=12;" edge="1" parent="1">
          <mxGeometry width="50" height="50" relative="1" as="geometry">
            <mxPoint x="680" y="560" as="sourcePoint" />
            <mxPoint x="420" y="560" as="targetPoint" />
          </mxGeometry>
        </mxCell>
        <mxCell id="I69QcnJhP8CfRzv54VIs-25" value="" style="endArrow=none;html=1;rounded=0;fontFamily=Times New Roman;fontSize=12;" edge="1" parent="1">
          <mxGeometry width="50" height="50" relative="1" as="geometry">
            <mxPoint x="560" y="930" as="sourcePoint" />
            <mxPoint x="680" y="930" as="targetPoint" />
          </mxGeometry>
        </mxCell>
        <mxCell id="I69QcnJhP8CfRzv54VIs-26" value="" style="endArrow=none;html=1;rounded=0;fontFamily=Times New Roman;fontSize=12;" edge="1" parent="1">
          <mxGeometry width="50" height="50" relative="1" as="geometry">
            <mxPoint x="680" y="930" as="sourcePoint" />
            <mxPoint x="680" y="780" as="targetPoint" />
          </mxGeometry>
        </mxCell>
        <mxCell id="I69QcnJhP8CfRzv54VIs-27" value="" style="endArrow=classic;html=1;rounded=0;fontFamily=Times New Roman;fontSize=12;" edge="1" parent="1">
          <mxGeometry width="50" height="50" relative="1" as="geometry">
            <mxPoint x="680" y="780" as="sourcePoint" />
            <mxPoint x="420" y="780" as="targetPoint" />
          </mxGeometry>
        </mxCell>
        <mxCell id="I69QcnJhP8CfRzv54VIs-28" value="1" style="ellipse;whiteSpace=wrap;html=1;aspect=fixed;fontFamily=Times New Roman;fontSize=12;" vertex="1" parent="1">
          <mxGeometry x="400" y="1000" width="40" height="40" as="geometry" />
        </mxCell>
        <mxCell id="I69QcnJhP8CfRzv54VIs-30" value="1" style="ellipse;whiteSpace=wrap;html=1;aspect=fixed;fontFamily=Times New Roman;fontSize=12;" vertex="1" parent="1">
          <mxGeometry x="400" y="1160" width="40" height="40" as="geometry" />
        </mxCell>
        <mxCell id="I69QcnJhP8CfRzv54VIs-31" value="" style="endArrow=classic;html=1;rounded=0;fontFamily=Times New Roman;fontSize=12;" edge="1" parent="1">
          <mxGeometry width="50" height="50" relative="1" as="geometry">
            <mxPoint x="420" y="1200" as="sourcePoint" />
            <mxPoint x="420" y="1220" as="targetPoint" />
          </mxGeometry>
        </mxCell>
        <mxCell id="I69QcnJhP8CfRzv54VIs-32" value="&lt;div&gt;double abs = Math.Abs(x);&lt;/div&gt;&lt;div&gt;double sin = Math.Sin(x);&lt;/div&gt;&lt;div&gt;double cos = Math.Cos(x);&lt;/div&gt;&lt;div&gt;double tan = Math.Tan(x);&lt;/div&gt;&lt;div&gt;double acos =Math.Acos(x);&lt;/div&gt;&lt;div&gt;double asin =Math.Asin(x);&lt;/div&gt;&lt;div&gt;double atan = Math.Atan(x);&lt;/div&gt;&lt;div&gt;double atan2 = Math.Atan2(x, y);&lt;/div&gt;&lt;div&gt;long bigMul = Math.BigMul((int)x, (int)y);&lt;/div&gt;&lt;div&gt;double ceiling = Math.Ceiling(x);&lt;/div&gt;&lt;div&gt;double floor = Math.Floor(x);&lt;/div&gt;&lt;div&gt;double sqrt = Math.Sqrt(x);&lt;/div&gt;&lt;div&gt;double log = Math.Log(x);&lt;/div&gt;&lt;div&gt;double log10 =Math.Log10(x);&lt;/div&gt;&lt;div&gt;double exp = Math.Exp(x);&lt;/div&gt;&lt;div&gt;double max = Math.Max(x, y);&lt;/div&gt;&lt;div&gt;double Min = Math.Min(x, y);&lt;/div&gt;&lt;div&gt;double pow = Math.Pow(x, y);&lt;/div&gt;&lt;div&gt;double round = Math.Round(x);&lt;/div&gt;&lt;div&gt;int sign = Math.Sign(x);&lt;/div&gt;&lt;div&gt;double sinh = Math.Sinh(x);&lt;/div&gt;&lt;div&gt;double cosh = Math.Cosh(x);&lt;/div&gt;&lt;div&gt;double tanh = Math.Tanh(x);&lt;/div&gt;&lt;div&gt;double truncate = Math.Truncate(x);&lt;/div&gt;" style="shape=document;whiteSpace=wrap;html=1;boundedLbl=1;size=0.0625;fontFamily=Times New Roman;fontSize=12;" vertex="1" parent="1">
          <mxGeometry x="240" y="1220" width="360" height="380" as="geometry" />
        </mxCell>
        <mxCell id="I69QcnJhP8CfRzv54VIs-33" value="" style="endArrow=classic;html=1;rounded=0;fontFamily=Times New Roman;fontSize=12;" edge="1" parent="1">
          <mxGeometry width="50" height="50" relative="1" as="geometry">
            <mxPoint x="420" y="1590" as="sourcePoint" />
            <mxPoint x="420" y="1620" as="targetPoint" />
          </mxGeometry>
        </mxCell>
        <mxCell id="I69QcnJhP8CfRzv54VIs-37" value="" style="edgeStyle=orthogonalEdgeStyle;rounded=0;orthogonalLoop=1;jettySize=auto;html=1;exitX=0.5;exitY=0.98;exitDx=0;exitDy=0;exitPerimeter=0;" edge="1" parent="1" source="I69QcnJhP8CfRzv54VIs-34" target="I69QcnJhP8CfRzv54VIs-36">
          <mxGeometry relative="1" as="geometry" />
        </mxCell>
        <mxCell id="I69QcnJhP8CfRzv54VIs-34" value="&lt;div&gt;Console.WriteLine(&quot;Нажмите любую клавишу для начала работы...&quot;);&lt;/div&gt;&lt;div&gt;Console.ReadKey();&lt;/div&gt;&lt;div&gt;Console.WriteLine(&quot;------------------------------------------------------------------------------&quot;);&lt;/div&gt;&lt;div&gt;Console.WriteLine($&quot;Модуль числа: Math.Abs({x}) = {abs}&quot;);&lt;/div&gt;&lt;div&gt;Console.WriteLine($&quot;Арккосинус: Math.Acos({x}) = {acos}&quot;);&lt;/div&gt;&lt;div&gt;Console.WriteLine($&quot;Арксинус: Math.Asin({x}) = {asin}&quot;);&lt;/div&gt;&lt;div&gt;Console.WriteLine($&quot;Арктангенс: Math.Atan({x}) = {atan}&quot;);&lt;/div&gt;&lt;div&gt;Console.WriteLine($&quot;Арктангенс: Math.Atan2({y}) = {atan2}&quot;);&lt;/div&gt;&lt;div&gt;Console.WriteLine($&quot;,большее: Math.BigMul({x}) = {bigMul}&quot;);&lt;/div&gt;&lt;div&gt;Console.WriteLine($&quot;Округление вверх: Math.Ceiling({x}) = {ceiling}&quot;);&lt;/div&gt;&lt;div&gt;Console.WriteLine($&quot;Косинус: Math.Cos({x}) = {cos}&quot;);&lt;/div&gt;&lt;div&gt;Console.WriteLine($&quot;гип кос числа: Math.Cosh({x}) = {cosh}&quot;);&lt;/div&gt;&lt;div&gt;Console.WriteLine($&quot;Math.E = {Math.E}&quot;);&lt;/div&gt;&lt;div&gt;Console.WriteLine($&quot;Math.Exp = {exp}&quot;);&lt;/div&gt;&lt;div&gt;Console.WriteLine($&quot;Округление вниз: Math.Floor({x}) = {floor}&quot;);&lt;/div&gt;&lt;div&gt;Console.WriteLine($&quot;логарифм: Math.Log({x}) = {log}&quot;);&lt;/div&gt;&lt;div&gt;Console.WriteLine($&quot;логарифм10: Math.Log10({x}) = {log10}&quot;);&lt;/div&gt;&lt;div&gt;Console.WriteLine($&quot;Максимум (x, y): Math.Max({x}, {y}) = {max}&quot;);&lt;/div&gt;&lt;div&gt;Console.WriteLine($&quot;Минимум (x, y): Math.Min({x}, {y}) = {Min}&quot;);&lt;/div&gt;&lt;div&gt;Console.WriteLine($&quot;пи: Math.PI = {Math.PI}&quot;);&lt;/div&gt;&lt;div&gt;Console.WriteLine($&quot;степень: Math.Pow({x}) = {pow}&quot;);&lt;/div&gt;&lt;div&gt;Console.WriteLine($&quot;округление: Math.Round({x}) = {round}&quot;);&lt;/div&gt;&lt;div&gt;Console.WriteLine($&quot;знак числа: Math.Sign({x}) = {sign}&quot;);&lt;/div&gt;&lt;div&gt;Console.WriteLine($&quot;Синус: Math.Sin({x}) = {sin}&quot;);&lt;/div&gt;&lt;div&gt;Console.WriteLine($&quot;гип Синус числа: Math.Sinh({x}) = {sinh}&quot;);&lt;/div&gt;&lt;div&gt;Console.WriteLine($&quot;Квадратный корень: Math.Sqrt({x}) = {sqrt}&quot;);&lt;/div&gt;&lt;div&gt;Console.WriteLine($&quot;Тангенс: Math.Tan({x}) = {tan}&quot;);&lt;/div&gt;&lt;div&gt;Console.WriteLine($&quot;гип Тангенс числа: Math.Tanh({x}) = {tanh}&quot;);&lt;/div&gt;&lt;div&gt;Console.WriteLine($&quot;удаление строк: Math.Truncate({x}) = {truncate}&quot;);&lt;/div&gt;&lt;div&gt;Console.WriteLine($&quot;Минимальное значение: {min}&quot;);&lt;/div&gt;" style="shape=document;whiteSpace=wrap;html=1;boundedLbl=1;size=0.03614457831325301;fontFamily=Times New Roman;fontSize=12;align=left;" vertex="1" parent="1">
          <mxGeometry x="240" y="1620" width="360" height="500" as="geometry" />
        </mxCell>
        <mxCell id="I69QcnJhP8CfRzv54VIs-36" value="Конец" style="ellipse;whiteSpace=wrap;html=1;fontFamily=Times New Roman;fontSize=12;" vertex="1" parent="1">
          <mxGeometry x="280" y="2160" width="280" height="50" as="geometry" />
        </mxCell>
      </root>
    </mxGraphModel>
  </diagram>
</mxfile>
